<svg xmlns="http://www.w3.org/2000/svg" width="25.015" height="19.23" viewBox="0 0 25.015 19.23">
  <path id="icon-eye" d="M20.433,2.562l-3.488,3.27A13.773,13.773,0,0,0,12.523,5.1C4.634,5.1,0,11.931,0,11.931a21.565,21.565,0,0,0,5.364,5.355L2.33,20.318,3.8,21.792l18.1-17.755L20.433,2.562Zm-6.27,6.023a4.155,4.155,0,0,0-5.488,5.426l-1.8,1.779a18.942,18.942,0,0,1-4.232-3.815C4.2,10.258,7.665,7.188,12.523,7.188a11.571,11.571,0,0,1,2.72.328Zm-3,7.745,5.305-5.2A4.159,4.159,0,0,1,11.158,16.331Zm13.857-4.4S20.583,19.7,12.523,19.7a11.362,11.362,0,0,1-4.014-.768l1.682-1.65a8.9,8.9,0,0,0,2.332.334c4.994,0,8.447-3.676,9.906-5.591A15.956,15.956,0,0,0,18.69,8.943l1.552-1.522a17.321,17.321,0,0,1,4.773,4.51Z" transform="translate(0 -2.562)"/>
</svg>
