<svg xmlns="http://www.w3.org/2000/svg" width="26" height="26" viewBox="0 0 26 26">
  <path id="icon-transparent" d="M13,0A13,13,0,1,0,26,13,13,13,0,0,0,13,0m-.632,23.568a10.507,10.507,0,0,1-3.11-.663L22.975,9.45a10.541,10.541,0,0,1,.6,3.124Zm10.1-15.3L8.079,22.38a10.608,10.608,0,0,1-2.2-1.553l15.088-14.8a10.65,10.65,0,0,1,1.5,2.236M13.633,2.432a10.532,10.532,0,0,1,3.109.663L3.024,16.55a10.528,10.528,0,0,1-.6-3.122Zm-1.742.027-9.4,9.219a10.614,10.614,0,0,1,9.4-9.219M3.53,17.735,17.921,3.62a10.575,10.575,0,0,1,2.2,1.554L5.035,19.972a10.631,10.631,0,0,1-1.5-2.237m10.58,5.806,9.4-9.218a10.613,10.613,0,0,1-9.4,9.218"/>
</svg>
