<svg xmlns="http://www.w3.org/2000/svg" width="12.192" height="21.675" viewBox="0 0 12.192 21.675">
  <path id="icon-tour" d="M7.663,10.045c-.1.817-.147,1.6-.309,2.359A18.2,18.2,0,0,1,2.2,21.27a1.236,1.236,0,0,1-1.827.006,1.265,1.265,0,0,1,.04-1.835A19.548,19.548,0,0,0,4.208,13.92a10.324,10.324,0,0,0,.736-5.776,4.726,4.726,0,0,0-1.706,3.144,1.235,1.235,0,0,1-1.633.938c-.742-.234-.984-.9-.825-1.732A9.928,9.928,0,0,1,4.77,4.869a1.327,1.327,0,0,1,2.095.415A8.979,8.979,0,0,0,10.473,8.55a1.3,1.3,0,0,1,.691,1.754,1.334,1.334,0,0,1-1.826.639c-.561-.259-1.091-.582-1.675-.9M7.206,15.29a.743.743,0,0,0,.074.5c.852,1.7,1.7,3.4,2.593,5.085a1.584,1.584,0,0,0,.733.652,1.068,1.068,0,0,0,1.3-.342A1.237,1.237,0,0,0,12,19.726q-1.731-3.367-3.454-6.738c-.106-.206-.214-.411-.326-.626-.352,1.006-.7,1.962-1.013,2.927M7.661,2a2.021,2.021,0,0,0-4.043,0A2.021,2.021,0,1,0,7.661,2" transform="translate(0 0)"/>
</svg>
