<svg xmlns="http://www.w3.org/2000/svg" width="26" height="19.988" viewBox="0 0 26 19.988">
  <path id="icon-hidden" d="M21.238,2.562l-3.625,3.4a14.315,14.315,0,0,0-4.6-.757C4.816,5.2,0,12.3,0,12.3a22.414,22.414,0,0,0,5.575,5.566L2.421,21.018,3.953,22.55,22.771,4.095,21.238,2.562ZM14.72,8.823a4.319,4.319,0,0,0-5.7,5.64l-1.87,1.849a19.688,19.688,0,0,1-4.4-3.965C4.366,10.561,7.967,7.37,13.016,7.37a12.026,12.026,0,0,1,2.827.341ZM11.6,16.873l5.514-5.409A4.323,4.323,0,0,1,11.6,16.873ZM26,12.3s-4.606,8.07-12.984,8.07a11.81,11.81,0,0,1-4.172-.8l1.749-1.715a9.254,9.254,0,0,0,2.423.347c5.19,0,8.779-3.821,10.3-5.811a16.585,16.585,0,0,0-3.886-3.2l1.613-1.582A18,18,0,0,1,26,12.3Z" transform="translate(0 -2.562)"/>
</svg>
