<svg id="Ebene_1" data-name="Ebene 1" xmlns="http://www.w3.org/2000/svg" width="314.46" height="78.41" viewBox="0 0 314.46 78.41">
  <g>
    <path d="M36.7,43.69c-.83,0-1.7,0-2.64,0a23.47,23.47,0,0,1-2.55-.21l1-5.1h2.72A13.32,13.32,0,0,0,43,36.16a13.85,13.85,0,0,0,4.77-5.59,16.57,16.57,0,0,0,1.61-7.12A11.94,11.94,0,0,0,47.23,16,12.23,12.23,0,0,0,41.59,12a22.82,22.82,0,0,0-7.86-1.27,24.81,24.81,0,0,0-7,1,22.16,22.16,0,0,0-6.46,3,16,16,0,0,0-4.73,5.06A13.73,13.73,0,0,0,13.74,27a19.88,19.88,0,0,0,.45,4.32A22.33,22.33,0,0,0,16,36a7,7,0,0,1-2.75,1.69,9.53,9.53,0,0,1-2.92.53,10,10,0,0,1-5.6-1.52,9.83,9.83,0,0,1-3.5-4A12.49,12.49,0,0,1,0,27.32,15.94,15.94,0,0,1,2.84,18a23,23,0,0,1,7.69-6.83,41.28,41.28,0,0,1,11-4.2A54.4,54.4,0,0,1,34.06,5.51,59.53,59.53,0,0,1,45.62,6.58,31.78,31.78,0,0,1,55,9.92a18.32,18.32,0,0,1,6.34,5.63,13.92,13.92,0,0,1,2.3,8.06A16,16,0,0,1,61.46,32a20.17,20.17,0,0,1-6,6.29,29.78,29.78,0,0,1-8.64,4A36.11,36.11,0,0,1,36.7,43.69Zm-17,20a12.28,12.28,0,0,1-4.86-.94,4,4,0,0,1-2.63-2.68,5.21,5.21,0,0,0,1.93-1.68,9.16,9.16,0,0,0,1.16-2.76c.3-1.15.61-2.63.94-4.44l5-25.1a25,25,0,0,1,2-6.17A8.79,8.79,0,0,1,27,16a13.18,13.18,0,0,1,6.33-1.31,11.47,11.47,0,0,1,5.19,1.11A4,4,0,0,1,41,18.76a5,5,0,0,0-2.72,2.67,28.52,28.52,0,0,0-1.4,5l-5,25.34a24.41,24.41,0,0,1-2.1,6.63,9.2,9.2,0,0,1-3.7,4A12.93,12.93,0,0,1,19.75,63.68Z"/>
    <path d="M73.89,63.68a9.3,9.3,0,0,1-6.13-1.93A7.06,7.06,0,0,1,65.41,56a31.1,31.1,0,0,1,.29-3.74c.19-1.51.44-3.1.74-4.78s.6-3.25.9-4.73.57-2.71.79-3.7l3.7-18.92L86.64,18.6,80.3,50.68q-.08.66-.24,1.65a11.09,11.09,0,0,0-.17,1.81,4.63,4.63,0,0,0,.82,2.67,3.24,3.24,0,0,0,2.72,1.28,6.84,6.84,0,0,1-3.7,4.24A13.32,13.32,0,0,1,73.89,63.68Zm7.65-50.35a10.18,10.18,0,0,1-5.84-1.56,5.14,5.14,0,0,1-2.31-4.53,5.31,5.31,0,0,1,2.43-4.73,10.58,10.58,0,0,1,6-1.6,9.45,9.45,0,0,1,5.68,1.6,5.3,5.3,0,0,1,2.22,4.57,5.28,5.28,0,0,1-2.34,4.69A10.27,10.27,0,0,1,81.54,13.33Z"/>
    <path d="M98,63.68a9.35,9.35,0,0,1-6.09-1.93A7,7,0,0,1,89.52,56a29.85,29.85,0,0,1,.37-4.2c.24-1.7.56-3.58.94-5.63s.83-4.24,1.32-6.54l1.48-6.91c.49-2.31,1-4.54,1.44-6.71s.87-4.16,1.19-6c.61-3.12,1.06-5.84,1.36-8.14A46.53,46.53,0,0,0,98.07,6,19.71,19.71,0,0,0,98,3.74,8.46,8.46,0,0,0,97.58,2,15.48,15.48,0,0,1,101.32.54,16.36,16.36,0,0,1,105.4,0a9.16,9.16,0,0,1,5.1,1.44q2.22,1.44,2.22,5.14a24.7,24.7,0,0,1-.21,2.68c-.13,1.18-.32,2.53-.57,4.07s-.55,3.2-.91,5-.72,3.6-1.11,5.47q-1.73,8.38-2.84,13.74c-.74,3.57-1.31,6.4-1.72,8.52s-.72,3.69-.91,4.73-.32,1.78-.37,2.22a10.44,10.44,0,0,0-.08,1.15,4.56,4.56,0,0,0,.82,2.67,3.14,3.14,0,0,0,2.63,1.28,5.84,5.84,0,0,1-2,3.21A10.14,10.14,0,0,1,102,63.11,14,14,0,0,1,98,63.68Z"/>
    <path d="M122.43,63.68a9.32,9.32,0,0,1-6.13-1.93A7.09,7.09,0,0,1,114,56a31.1,31.1,0,0,1,.29-3.74c.19-1.51.44-3.1.74-4.78s.6-3.25.91-4.73.56-2.71.78-3.7l3.7-18.92,14.81-1.48-6.33,32.08c-.06.44-.14,1-.25,1.65a11.09,11.09,0,0,0-.17,1.81,4.57,4.57,0,0,0,.83,2.67A3.22,3.22,0,0,0,132,58.09a6.84,6.84,0,0,1-3.7,4.24A13.26,13.26,0,0,1,122.43,63.68Zm7.65-50.35a10.18,10.18,0,0,1-5.84-1.56,5.14,5.14,0,0,1-2.31-4.53,5.31,5.31,0,0,1,2.43-4.73,10.6,10.6,0,0,1,6-1.6A9.44,9.44,0,0,1,136,2.51a5.28,5.28,0,0,1,2.23,4.57,5.29,5.29,0,0,1-2.35,4.69A10.24,10.24,0,0,1,130.08,13.33Z"/>
    <path d="M150.73,78.41c-2.3,0-4.54-.09-6.7-.29A24.71,24.71,0,0,1,138.22,77a9.61,9.61,0,0,1-4-2.43,5.64,5.64,0,0,1-1.48-4,6.27,6.27,0,0,1,2.35-4.85,9.07,9.07,0,0,1,5.8-1.73,10.15,10.15,0,0,1,4.36.86A8.33,8.33,0,0,1,148.1,67a3.16,3.16,0,0,0-1.19,1.39,4.4,4.4,0,0,0-.29,1.65,2.86,2.86,0,0,0,1.73,2.8,12.16,12.16,0,0,0,5,.82,14.21,14.21,0,0,0,4.57-.74,7.91,7.91,0,0,0,3.58-2.39,6.24,6.24,0,0,0,1.4-4.19,2.66,2.66,0,0,0-2.06-3.13,31.2,31.2,0,0,0-7.07-.58,32.59,32.59,0,0,1-7.74-.74,8.34,8.34,0,0,1-4.32-2.26,6,6,0,0,1-1.44-3.91,9,9,0,0,1,1.94-5.43,17.61,17.61,0,0,1,4.4-4,10.71,10.71,0,0,1-5-4,11.53,11.53,0,0,1-1.77-6.58,15.23,15.23,0,0,1,3-9.59,18.08,18.08,0,0,1,7.94-5.76,29.84,29.84,0,0,1,10.82-1.93,24.54,24.54,0,0,1,4.73.37c1.24.25,2.32.49,3.25.74a11.4,11.4,0,0,0,3,.37,5.62,5.62,0,0,0,4.52-1.73,5.79,5.79,0,0,0,1.4-4.11,5.46,5.46,0,0,0-1.15-3.46A8.45,8.45,0,0,1,180,8.76a7.87,7.87,0,0,1,3-.61,4.92,4.92,0,0,1,3.45,1.19,4.35,4.35,0,0,1,1.32,3.41,9.62,9.62,0,0,1-1.48,5,13,13,0,0,1-4.12,4.2,14.09,14.09,0,0,1-6.17,2.14,11,11,0,0,1,1.16,2.71,12.5,12.5,0,0,1,.41,3.29,15.93,15.93,0,0,1-2.88,9.59,17.7,17.7,0,0,1-7.78,6,28.64,28.64,0,0,1-11,2c-.55,0-1.14,0-1.77,0l-1.94-.12a5,5,0,0,0-.94,1.07A2.5,2.5,0,0,0,151,50c0,.82.53,1.33,1.6,1.52a29.83,29.83,0,0,0,4.82.29h5.26q7.41,0,10.74,2.51a8.1,8.1,0,0,1,3.25,7,12.79,12.79,0,0,1-2.43,7.49,18.38,18.38,0,0,1-6.17,5.3,32.89,32.89,0,0,1-8.35,3.17A39.1,39.1,0,0,1,150.73,78.41Zm6.5-35a5.17,5.17,0,0,0,4.36-2.22,15.44,15.44,0,0,0,2.47-5.43,25.35,25.35,0,0,0,.82-6.33,10.74,10.74,0,0,0-1-4.73,3.59,3.59,0,0,0-3.54-2,5,5,0,0,0-3.54,1.36,10.58,10.58,0,0,0-2.47,3.58,20.24,20.24,0,0,0-1.44,4.81,24.59,24.59,0,0,0-.37,5,8,8,0,0,0,1.07,4.32A4,4,0,0,0,157.23,43.44Z"/>
    <path d="M181.34,63.52l8.39-43.44,12-1.48-1.23,7.89a14.14,14.14,0,0,1,5-6,13.14,13.14,0,0,1,7.44-2.1q4.69,0,7.12,2.43a9.17,9.17,0,0,1,2.43,6.79,11.86,11.86,0,0,1-2.88,8.18,9.53,9.53,0,0,1-7.49,3.25,10.71,10.71,0,0,1-2.63-.33,3.89,3.89,0,0,1-2.06-1.15,13.33,13.33,0,0,0,2.26-4.48,16.53,16.53,0,0,0,.87-4.9,5.1,5.1,0,0,0-.54-2.47,2.08,2.08,0,0,0-2-1,4,4,0,0,0-2.6,1,8.64,8.64,0,0,0-2.09,2.76,24.39,24.39,0,0,0-1.65,4.24,44.67,44.67,0,0,0-1.23,5.43l-4,23.86Z"/>
    <path d="M230.29,63.68a9.34,9.34,0,0,1-6.13-1.93,7.09,7.09,0,0,1-2.34-5.8,29.16,29.16,0,0,1,.29-3.74c.19-1.51.43-3.1.74-4.78s.6-3.25.9-4.73.56-2.71.78-3.7l3.71-18.92,14.81-1.48-6.34,32.08c-.05.44-.14,1-.25,1.65a11,11,0,0,0-.16,1.81,4.56,4.56,0,0,0,.82,2.67,3.22,3.22,0,0,0,2.72,1.28,6.87,6.87,0,0,1-3.7,4.24A13.33,13.33,0,0,1,230.29,63.68Zm7.65-50.35a10.22,10.22,0,0,1-5.84-1.56,5.15,5.15,0,0,1-2.3-4.53,5.31,5.31,0,0,1,2.43-4.73,10.54,10.54,0,0,1,6-1.6,9.45,9.45,0,0,1,5.68,1.6,5.3,5.3,0,0,1,2.22,4.57,5.28,5.28,0,0,1-2.34,4.69A10.28,10.28,0,0,1,237.94,13.33Z"/>
    <path d="M303.93,63.68a9.49,9.49,0,0,1-6.17-1.93q-2.38-1.94-2.39-6a24,24,0,0,1,.54-4.53q.54-2.71,1.23-5.76t1.4-6.13q.7-3.09,1.2-5.68a24.81,24.81,0,0,0,.49-4.4,6.51,6.51,0,0,0-.74-3.21,2.86,2.86,0,0,0-2.72-1.31,4.72,4.72,0,0,0-3.33,1.35,10.93,10.93,0,0,0-2.38,3.42,26.37,26.37,0,0,0-1.53,4.19q-.57,2.15-.9,3.87L283.86,62l-14.65,1.48L273.74,42c.16-.71.35-1.63.57-2.75s.44-2.32.66-3.58.42-2.48.62-3.66a19.3,19.3,0,0,0,.28-3,5.89,5.89,0,0,0-.74-3,2.83,2.83,0,0,0-2.71-1.31A4.81,4.81,0,0,0,269.05,26a10.23,10.23,0,0,0-2.35,3.29,24.76,24.76,0,0,0-1.52,4.2c-.39,1.45-.71,2.81-1,4.07L259.5,62l-14.73,1.48,8.56-43.44,12-1.48-1.23,7.89A13,13,0,0,1,270,20.28a18.93,18.93,0,0,1,8.4-1.85A14,14,0,0,1,285.34,20a8.36,8.36,0,0,1,3.86,5.27A12.57,12.57,0,0,1,295.13,20a20.14,20.14,0,0,1,7.9-1.56q5.34,0,8.39,2.3t3,7.41A30.81,30.81,0,0,1,314,33c-.3,1.83-.69,3.74-1.15,5.71s-.92,3.91-1.36,5.8-.82,3.65-1.15,5.27a21,21,0,0,0-.49,4.07,5,5,0,0,0,.78,2.88,3.45,3.45,0,0,0,2.75,1.32,6.82,6.82,0,0,1-3.7,4.24A13.08,13.08,0,0,1,303.93,63.68Z"/>
  </g>
</svg>
